<svg width="18" height="14" viewBox="0 0 18 14" fill="none" xmlns="http://www.w3.org/2000/svg">
<path d="M17.267 6.66671C15.5836 2.75837 12.417 0.333374 9.0003 0.333374C5.58363 0.333374 2.41697 2.75837 0.733633 6.66671C0.687747 6.77185 0.664062 6.88533 0.664062 7.00004C0.664063 7.11476 0.687747 7.22824 0.733633 7.33337C2.41697 11.2417 5.58363 13.6667 9.0003 13.6667C12.417 13.6667 15.5836 11.2417 17.267 7.33337C17.3129 7.22824 17.3365 7.11476 17.3365 7.00004C17.3365 6.88533 17.3129 6.77185 17.267 6.66671V6.66671ZM9.0003 12C6.35863 12 3.85863 10.0917 2.41697 7.00004C3.85863 3.90837 6.35863 2.00004 9.0003 2.00004C11.642 2.00004 14.142 3.90837 15.5836 7.00004C14.142 10.0917 11.642 12 9.0003 12V12ZM9.0003 3.66671C8.34103 3.66671 7.69656 3.8622 7.1484 4.22848C6.60024 4.59475 6.17299 5.11534 5.9207 5.72443C5.66841 6.33352 5.6024 7.00374 5.73102 7.65034C5.85963 8.29694 6.1771 8.89089 6.64328 9.35706C7.10945 9.82324 7.7034 10.1407 8.35 10.2693C8.9966 10.3979 9.66682 10.3319 10.2759 10.0796C10.885 9.82735 11.4056 9.4001 11.7719 8.85194C12.1381 8.30378 12.3336 7.65931 12.3336 7.00004C12.3336 6.11599 11.9824 5.26814 11.3573 4.64302C10.7322 4.0179 9.88435 3.66671 9.0003 3.66671V3.66671ZM9.0003 8.66671C8.67066 8.66671 8.34843 8.56896 8.07435 8.38582C7.80027 8.20269 7.58665 7.94239 7.4605 7.63785C7.33435 7.3333 7.30135 6.99819 7.36566 6.67489C7.42997 6.35159 7.5887 6.05462 7.82179 5.82153C8.05488 5.58844 8.35185 5.42971 8.67515 5.3654C8.99845 5.30109 9.33356 5.3341 9.63811 5.46024C9.94265 5.58639 10.2029 5.80001 10.3861 6.07409C10.5692 6.34817 10.667 6.67041 10.667 7.00004C10.667 7.44207 10.4914 7.86599 10.1788 8.17855C9.86625 8.49111 9.44233 8.66671 9.0003 8.66671Z" fill="black" fill-opacity="0.3"/>
</svg>
