<svg width="268" height="42" viewBox="0 0 268 42" fill="none" xmlns="http://www.w3.org/2000/svg">
<path d="M35.0039 16.9053H39.1055C39.0508 18.0928 38.7305 19.1396 38.1445 20.0459C37.5586 20.9521 36.7461 21.6592 35.707 22.167C34.6758 22.667 33.457 22.917 32.0508 22.917C30.9102 22.917 29.8906 22.7256 28.9922 22.3428C28.1016 21.96 27.3438 21.4092 26.7188 20.6904C26.1016 19.9717 25.6289 19.1006 25.3008 18.0771C24.9805 17.0537 24.8203 15.9014 24.8203 14.6201V13.6943C24.8203 12.4131 24.9883 11.2607 25.3242 10.2373C25.668 9.20605 26.1523 8.33105 26.7773 7.6123C27.4102 6.88574 28.168 6.33105 29.0508 5.94824C29.9336 5.56543 30.9141 5.37402 31.9922 5.37402C33.4766 5.37402 34.7305 5.63965 35.7539 6.1709C36.7773 6.70215 37.5703 7.43262 38.1328 8.3623C38.6953 9.28418 39.0273 10.335 39.1289 11.5146H35.0273C35.0117 10.874 34.9023 10.3389 34.6992 9.90918C34.4961 9.47168 34.1758 9.14355 33.7383 8.9248C33.3008 8.70605 32.7188 8.59668 31.9922 8.59668C31.4844 8.59668 31.043 8.69043 30.668 8.87793C30.293 9.06543 29.9805 9.3623 29.7305 9.76855C29.4805 10.1748 29.293 10.7021 29.168 11.3506C29.0508 11.9912 28.9922 12.7646 28.9922 13.6709V14.6201C28.9922 15.5264 29.0469 16.2998 29.1562 16.9404C29.2656 17.5811 29.4414 18.1045 29.6836 18.5107C29.9258 18.917 30.2383 19.2178 30.6211 19.4131C31.0117 19.6006 31.4883 19.6943 32.0508 19.6943C32.6758 19.6943 33.2031 19.5967 33.6328 19.4014C34.0625 19.1982 34.3945 18.8936 34.6289 18.4873C34.8633 18.0732 34.9883 17.5459 35.0039 16.9053ZM52.8042 19.5186V22.6826H44.1792V19.5186H52.8042ZM45.6441 5.62012V22.6826H41.5308V5.62012H45.6441ZM59.3897 5.62012V22.6826H55.2881V5.62012H59.3897ZM72.4673 16.9053H76.5689C76.5142 18.0928 76.1939 19.1396 75.608 20.0459C75.022 20.9521 74.2095 21.6592 73.1705 22.167C72.1392 22.667 70.9205 22.917 69.5142 22.917C68.3736 22.917 67.3541 22.7256 66.4556 22.3428C65.565 21.96 64.8072 21.4092 64.1822 20.6904C63.565 19.9717 63.0923 19.1006 62.7642 18.0771C62.4439 17.0537 62.2837 15.9014 62.2837 14.6201V13.6943C62.2837 12.4131 62.4517 11.2607 62.7877 10.2373C63.1314 9.20605 63.6158 8.33105 64.2408 7.6123C64.8736 6.88574 65.6314 6.33105 66.5142 5.94824C67.397 5.56543 68.3775 5.37402 69.4556 5.37402C70.94 5.37402 72.1939 5.63965 73.2173 6.1709C74.2408 6.70215 75.0337 7.43262 75.5962 8.3623C76.1587 9.28418 76.4908 10.335 76.5923 11.5146H72.4908C72.4752 10.874 72.3658 10.3389 72.1627 9.90918C71.9595 9.47168 71.6392 9.14355 71.2017 8.9248C70.7642 8.70605 70.1822 8.59668 69.4556 8.59668C68.9478 8.59668 68.5064 8.69043 68.1314 8.87793C67.7564 9.06543 67.4439 9.3623 67.1939 9.76855C66.9439 10.1748 66.7564 10.7021 66.6314 11.3506C66.5142 11.9912 66.4556 12.7646 66.4556 13.6709V14.6201C66.4556 15.5264 66.5103 16.2998 66.6197 16.9404C66.7291 17.5811 66.9048 18.1045 67.147 18.5107C67.3892 18.917 67.7017 19.2178 68.0845 19.4131C68.4752 19.6006 68.9517 19.6943 69.5142 19.6943C70.1392 19.6943 70.6666 19.5967 71.0962 19.4014C71.5259 19.1982 71.858 18.8936 72.0923 18.4873C72.3267 18.0732 72.4517 17.5459 72.4673 16.9053ZM83.1075 5.62012V22.6826H78.9942V5.62012H83.1075ZM93.2911 5.62012L86.6817 14.2686L82.8145 18.499L82.0645 14.7256L84.5372 10.9756L88.2169 5.62012H93.2911ZM88.4278 22.6826L84.0216 14.9951L87.2208 12.6396L93.2911 22.6826H88.4278Z" fill="white"/>
<path d="M110.341 16.917L114.267 16.8701C114.157 18.167 113.739 19.2725 113.013 20.1865C112.294 21.0928 111.384 21.7803 110.282 22.249C109.189 22.7178 108.021 22.9404 106.778 22.917C105.599 22.8936 104.607 22.6514 103.802 22.1904C102.997 21.7217 102.364 21.0967 101.903 20.3154C101.442 19.5264 101.138 18.6436 100.989 17.667C100.841 16.6826 100.833 15.667 100.966 14.6201L101.095 13.6943C101.251 12.6084 101.54 11.5654 101.962 10.5654C102.384 9.55762 102.935 8.65918 103.614 7.87012C104.302 7.08105 105.118 6.46387 106.064 6.01855C107.009 5.56543 108.079 5.35059 109.275 5.37402C110.548 5.39746 111.63 5.66309 112.521 6.1709C113.419 6.67871 114.114 7.38965 114.607 8.30371C115.107 9.21777 115.388 10.2959 115.45 11.5381L111.454 11.5264C111.478 10.9248 111.419 10.4092 111.278 9.97949C111.138 9.5498 110.888 9.21777 110.528 8.9834C110.177 8.74121 109.681 8.6084 109.04 8.58496C108.345 8.56152 107.763 8.70605 107.294 9.01855C106.833 9.32324 106.458 9.7334 106.169 10.249C105.88 10.7646 105.657 11.3232 105.501 11.9248C105.353 12.5264 105.239 13.1084 105.161 13.6709L105.044 14.6318C104.989 15.0928 104.939 15.6123 104.892 16.1904C104.845 16.7607 104.864 17.3115 104.95 17.8428C105.036 18.3662 105.235 18.8037 105.548 19.1553C105.86 19.5068 106.349 19.6943 107.013 19.7178C107.638 19.7334 108.181 19.6357 108.642 19.4248C109.103 19.2061 109.474 18.8857 109.755 18.4639C110.044 18.0342 110.239 17.5186 110.341 16.917ZM118.731 5.62012L125.048 5.63184C126.087 5.64746 127.044 5.83496 127.919 6.19434C128.794 6.55371 129.481 7.10449 129.981 7.84668C130.481 8.58105 130.692 9.52246 130.614 10.6709C130.544 11.6162 130.333 12.4131 129.981 13.0615C129.63 13.7021 129.153 14.249 128.551 14.7021C127.95 15.1553 127.243 15.5576 126.43 15.9092L124.977 16.6592H119.305L119.844 13.4834L123.7 13.5068C124.215 13.499 124.673 13.3975 125.071 13.2021C125.477 13.0068 125.809 12.7295 126.067 12.3701C126.325 12.0107 126.489 11.5732 126.559 11.0576C126.622 10.6357 126.606 10.2607 126.512 9.93262C126.419 9.59668 126.239 9.33105 125.973 9.13574C125.708 8.94043 125.356 8.83105 124.919 8.80762L122.2 8.7959L119.786 22.6826H115.778L118.731 5.62012ZM124.93 22.6826L122.575 15.1357L126.641 15.1123L129.208 22.4834V22.6826H124.93ZM140.785 9.40527L134.504 22.6826H130.063L139.11 5.62012H141.945L140.785 9.40527ZM141.863 22.6826L140.129 8.99512L140.223 5.62012H142.895L146.047 22.6826H141.863ZM142.777 16.3193L142.215 19.4951H133.695L134.258 16.3193H142.777ZM154.765 5.62012L151.8 22.6826H147.793L150.746 5.62012H154.765ZM159.968 12.7217L159.418 15.8857H151.824L152.375 12.7217H159.968ZM161.843 5.62012L161.293 8.7959H153.043L153.605 5.62012H161.843ZM172.226 5.62012L169.273 22.6826H165.253L168.218 5.62012H172.226ZM177.206 5.62012L176.655 8.7959H162.792L163.355 5.62012H177.206Z" fill="#7241FF"/>
</svg>
